<?xml version="1.0" encoding="UTF-8"?>
<svg width="64px" height="33px" viewBox="0 0 64 33" version="1.1" xmlns="http://www.w3.org/2000/svg" xmlns:xlink="http://www.w3.org/1999/xlink">
    <!-- Generator: sketchtool 57.1 (101010) - https://sketch.com -->
    <title>179740B4-8E08-4139-B56A-ADB99E413C7B</title>
    <desc>Created with sketchtool.</desc>
    <g id="Page---Home" stroke="none" stroke-width="1" fill="none" fill-rule="evenodd">
        <g id="Home---1024---C" transform="translate(-16.000000, -577.000000)" fill="#FFFFFF" fill-rule="nonzero">
            <g id="header-header/1024-(expanded)">
                <g id="1024" transform="translate(16.000000, 196.139738)">
                    <g id="footer" transform="translate(0.000000, 381.327511)">
                        <g id="logo-logo/fox-business-1-color">
                            <path d="M63.6792895,24.5589519 L63.6792895,26.2656271 L57.8017592,26.2656271 L57.7322257,26.272351 C57.5577104,26.3082354 57.4704528,26.4879443 57.4704528,26.8160691 L57.4704528,26.8160691 L57.4745441,26.9295284 C57.4963674,27.2142696 57.60552,27.3564872 57.8025742,27.3564872 L57.8025742,27.3564872 L62.0802166,27.3564872 L62.2647609,27.3648957 C62.747312,27.4097381 63.153374,27.6339115 63.4840918,28.0368039 L63.4840918,28.0368039 L63.6050079,28.2039148 C63.8683364,28.6035687 64.0000006,29.0713341 64.0000006,29.6075029 L64.0000006,29.6075029 L63.9919396,29.8335723 C63.9543212,30.351252 63.7850386,30.8002362 63.4840918,31.1808169 L63.4840918,31.1808169 L63.3565386,31.3232634 C63.0069669,31.6808543 62.5819078,31.8602619 62.0802166,31.8602619 L62.0802166,31.8602619 L56.2018712,31.8602619 L56.2018712,30.1535867 L62.0769565,30.1535867 L62.1462473,30.1468832 C62.3201902,30.1111184 62.4074479,29.9321412 62.4074479,29.6075029 L62.4074479,29.6075029 L62.4033588,29.4928461 C62.3815533,29.205197 62.2725617,29.0622908 62.0769565,29.0622908 L62.0769565,29.0622908 L57.8025742,29.0622908 L57.6179102,29.0538362 C57.1350863,29.0087547 56.7291451,28.7834622 56.399514,28.379795 L56.399514,28.379795 L56.2882137,28.2338685 C56.0090179,27.8356106 55.8705648,27.3642351 55.8705648,26.8160691 L55.8705648,26.8160691 L55.8772225,26.6144938 C55.9127346,26.0852672 56.090349,25.6225005 56.4109243,25.2261939 L56.4109243,25.2261939 L56.5357909,25.0857729 C56.8786412,24.7335386 57.3005207,24.5589519 57.8025742,24.5589519 L57.8025742,24.5589519 L63.6792895,24.5589519 Z M54.7111983,24.5589519 L54.7111983,26.2656271 L48.8348905,26.2656271 L48.7654643,26.272351 C48.5911637,26.3082354 48.5035841,26.4879443 48.5035841,26.8160691 L48.5035841,26.8160691 L48.5076877,26.9295284 C48.5295692,27.2142696 48.638923,27.3564872 48.8348905,27.3564872 L48.8348905,27.3564872 L53.1117178,27.3564872 L53.2965981,27.3648957 C53.7798647,27.4097381 54.1852828,27.6339115 54.5160005,28.0368039 L54.5160005,28.0368039 L54.6368522,28.2039148 C54.9002197,28.6035687 55.0331319,29.0713341 55.0331319,29.6075029 L55.0331319,29.6075029 L55.0250016,29.8335723 C54.9870768,30.351252 54.8165908,30.8002362 54.5160005,31.1808169 L54.5160005,31.1808169 L54.3889041,31.3232634 C54.0403296,31.6808543 53.6145863,31.8602619 53.1125328,31.8602619 L53.1125328,31.8602619 L47.23378,31.8602619 L47.23378,30.1535867 L53.1096803,30.1535867 L53.1793864,30.1468832 C53.3541164,30.1111184 53.4397641,29.9321412 53.4397641,29.6075029 L53.4397641,29.6075029 L53.4357427,29.4928461 C53.4142771,29.205197 53.3067344,29.0622908 53.1096803,29.0622908 L53.1096803,29.0622908 L48.8348905,29.0622908 L48.6503344,29.0538362 C48.1677296,29.0087547 47.7615066,28.7834622 47.4322378,28.379795 L47.4322378,28.379795 L47.3208582,28.2338685 C47.0415907,27.8356106 46.9041036,27.3642351 46.9041036,26.8160691 L46.9041036,26.8160691 L46.9106936,26.6144938 C46.9458659,26.0852672 47.1220314,25.6225005 47.4440556,25.2261939 L47.4440556,25.2261939 L47.5684784,25.0857729 C47.910394,24.7335386 48.3331992,24.5589519 48.8348905,24.5589519 L48.8348905,24.5589519 L54.7111983,24.5589519 Z M45.8832855,24.5589519 L45.8832855,26.2656271 L40.2074731,26.2656271 L40.2074731,27.3564872 L45.5124506,27.3564872 L45.5124506,29.0622908 L40.2074731,29.0622908 L40.2074731,30.1535867 L45.8690226,30.1535867 L45.8690226,31.8602619 L38.6157354,31.8602619 L38.6157354,24.5589519 L45.8832855,24.5589519 Z M31.9182951,24.5589519 L36.0092972,29.4431984 L36.0113347,24.5589519 L37.6014423,24.5589519 L37.6014423,31.8602619 L36.0113347,31.8602619 L31.9215552,26.9463796 L31.9215552,31.8602619 L30.3306325,31.8602619 L30.3306325,24.5589519 L31.9182951,24.5589519 Z M29.3155206,24.5589519 L29.3155206,31.8602619 L27.7237829,31.8602619 L27.7237829,24.5589519 L29.3155206,24.5589519 Z M26.56523,24.5589519 L26.56523,26.2656271 L20.6868846,26.2656271 L20.6174864,26.272351 C20.4433289,26.3082354 20.3563932,26.4879443 20.3563932,26.8160691 L20.3563932,26.8160691 L20.3604706,26.9295284 C20.3822224,27.2142696 20.4910529,27.3564872 20.6881071,27.3564872 L20.6881071,27.3564872 L24.966157,27.3564872 L25.1504861,27.3648957 C25.6326035,27.4097381 26.0392692,27.6339115 26.3696247,28.0368039 L26.3696247,28.0368039 L26.4905059,28.2039148 C26.7536783,28.6035687 26.8847186,29.0713341 26.8847186,29.6075029 L26.8847186,29.6075029 L26.8766925,29.8335723 C26.8392302,30.351252 26.6705716,30.8002362 26.3696247,31.1808169 L26.3696247,31.1808169 L26.242166,31.3232634 C25.8927464,31.6808543 25.4671238,31.8602619 24.966157,31.8602619 L24.966157,31.8602619 L19.0865891,31.8602619 L19.0865891,30.1535867 L24.9633045,30.1535867 L25.0330246,30.1468832 C25.2078261,30.1111184 25.2937958,29.9321412 25.2937958,29.6075029 L25.2937958,29.6075029 L25.2897604,29.4928461 C25.2682233,29.205197 25.1603586,29.0622908 24.9633045,29.0622908 L24.9633045,29.0622908 L20.6881071,29.0622908 L20.503295,29.0538362 C20.0200508,29.0087547 19.613546,28.7834622 19.2846394,28.379795 L19.2846394,28.379795 L19.1735259,28.2338685 C18.8946162,27.8356106 18.7548752,27.3642351 18.7548752,26.8160691 L18.7548752,26.8160691 L18.7616301,26.6144938 C18.7976387,26.0852672 18.9774667,25.6225005 19.2976798,25.2261939 L19.2976798,25.2261939 L19.4222764,25.0857729 C19.7644156,24.7335386 20.1856914,24.5589519 20.6881071,24.5589519 L20.6881071,24.5589519 L26.56523,24.5589519 Z M10.9620439,24.5589519 L10.9620439,29.6009656 L10.9662996,29.7174835 C10.988995,30.0096474 11.1024541,30.1535867 11.3063906,30.1535867 L11.3063906,30.1535867 L15.8000138,30.1535867 L15.8701119,30.1468312 C16.0458436,30.1107794 16.1321353,29.9302526 16.1321353,29.6009656 L16.1321353,29.6009656 L16.1321353,24.5589519 L17.7320232,24.5589519 L17.7320232,29.6009656 L17.7253488,29.8027866 C17.6897427,30.3329028 17.5116051,30.798166 17.1892187,31.1921483 L17.1892187,31.1921483 L17.065214,31.3322549 C16.7244298,31.6839535 16.3027918,31.8602619 15.8000138,31.8602619 L15.8000138,31.8602619 L11.3031306,31.8602619 L11.1158074,31.8519993 C10.6271252,31.8079365 10.2251283,31.5876801 9.90781308,31.1921483 L9.90781308,31.1921483 L9.79478665,31.0410762 C9.51144077,30.6293741 9.3723437,30.1471946 9.3723437,29.6009656 L9.3723437,29.6009656 L9.3723437,24.5589519 L10.9620439,24.5589519 Z M6.48594396,24.5589519 L6.68133735,24.5666233 C7.1902285,24.6075486 7.60184473,24.8123092 7.91589982,25.1830476 L7.91589982,25.1830476 L8.02751244,25.3285846 C8.27059988,25.6775139 8.39228009,26.0918435 8.39228009,26.5715735 L8.39228009,26.5715735 L8.38529576,26.7711904 C8.34337878,27.3565874 8.11268684,27.8207238 7.69054627,28.1588338 L7.69054627,28.1588338 L7.82363986,28.254842 C8.29050424,28.6217241 8.52472115,29.1519973 8.52472115,29.8463329 L8.52472115,29.8463329 L8.51706121,30.0477886 C8.48131486,30.5089102 8.32045629,30.9071758 8.0344855,31.2370378 L8.0344855,31.2370378 L7.91249271,31.3675701 C7.57484335,31.6953171 7.13859536,31.8602619 6.60575218,31.8602619 L6.60575218,31.8602619 L0,31.8602619 L0,24.5589519 L6.48594396,24.5589519 Z M6.60819719,29.0622908 L1.59133021,29.0622908 L1.59133021,30.1535867 L6.60819719,30.1535867 L6.68023103,30.1468831 C6.86118601,30.1111183 6.95295143,29.9321411 6.95295143,29.6075029 L6.95295143,29.6075029 L6.94865496,29.4931904 C6.92575385,29.2062301 6.8114093,29.0622908 6.60819719,29.0622908 L6.60819719,29.0622908 Z M6.48594401,26.2656271 L1.59133021,26.2656271 L1.59133021,27.3756633 L6.48594401,27.3756633 L6.5578286,27.3688324 C6.73835426,27.3323933 6.82947572,27.1501017 6.82947572,26.8204273 L6.82947572,26.8204273 L6.82520776,26.7037199 C6.80245422,26.4109438 6.68879389,26.2656271 6.48594401,26.2656271 L6.48594401,26.2656271 Z M61.3333333,0 L64,23.231441 L61.1282051,23.231441 L54.6666667,0 L61.3333333,0 Z M53.3333333,3.31877728 L60.3076922,23.231441 L55.9999999,23.231441 L48.6666667,10.6163026 L53.3333333,3.31877728 Z M54,21.9039301 L54.6666667,23.231441 L0,23.231441 L0,21.9039301 L54,21.9039301 Z M40.6666667,0 L43.3333333,5.31004365 L46,0 L53.3333333,0 L46.6666667,10.6163026 L53.3333333,21.2401746 L46.6666667,21.2401746 L43.3333333,15.930131 L40.6666667,21.2401746 L33.3333333,21.2401746 L39.3333333,10.6163026 L33.3333333,0 L40.6666667,0 Z M25.0256411,0 C31.368794,0 36.5128212,4.72384415 36.5128212,10.7580105 C36.5128212,16.3800721 31.368794,21.1022514 25.0256411,21.1022514 C18.6812441,21.1022514 13.538461,16.3800721 13.538461,10.7580105 C13.538461,4.72384415 18.6812441,0 25.0256411,0 Z M13.6666667,0 L14,5.97379911 L6,5.97379911 L6,7.96506548 L12.6666667,7.96506548 L12.6666667,13.9388646 L6,13.9388646 L6,20.5764192 L0,20.5764192 L0,0 L13.6666667,0 Z M24.9999994,4.6462882 C24.1279708,4.6462882 23.412362,5.31307625 23.3394504,6.16249843 L23.3333327,6.30567684 L23.3333327,14.9344978 C23.3333327,15.8509528 24.0795248,16.5938864 24.9999994,16.5938864 C25.8720279,16.5938864 26.5876367,15.9270984 26.6605484,15.0776762 L26.666666,14.9344978 L26.666666,6.30567684 C26.666666,5.3892218 25.9204739,4.6462882 24.9999994,4.6462882 Z" id="fox-business"></path>
                        </g>
                    </g>
                </g>
            </g>
        </g>
    </g>
</svg>