<?xml version="1.0" encoding="UTF-8"?>
<svg width="16px" height="16px" viewBox="0 0 16 16" version="1.1" xmlns="http://www.w3.org/2000/svg" xmlns:xlink="http://www.w3.org/1999/xlink">
    <title>26CD464D-E0FE-41B0-9B48-4B5BDFFA62D8</title>
    <g id="Symbols" stroke="none" stroke-width="1" fill="none" fill-rule="evenodd">
        <g id="footer/768" transform="translate(-566.000000, -622.000000)" fill="#FFFFFF" fill-rule="nonzero">
            <g id="768" transform="translate(24.000000, 32.000000)">
                <g id="social" transform="translate(155.000000, 583.000000)">
                    <g id="icon-social-iheartradio" transform="translate(380.000000, 0.000000)">
                        <g id="icon-iheartradio" transform="translate(7.500000, 7.500000)">
                            <path d="M10.9335841,1.875 C13.1925891,1.875 15.0223831,3.73036731 14.9997931,6.02094423 C14.9997931,7.47546057 14.0961911,8.51767307 13.147409,9.49116826 L13.147409,9.49116826 L9.44264081,13.0415625 C9.25062539,13.2248086 8.93436469,13.087374 8.93436469,12.8125048 L8.93436469,12.8125048 L8.93436469,10.0409067 C8.93436469,9.2392048 8.29054827,8.58639038 7.49989653,8.58639038 C6.70924479,8.58639038 6.06542837,9.2392048 6.06542837,10.0409067 L6.06542837,10.0409067 L6.06542837,12.8125048 C6.06542837,13.087374 5.74916767,13.2248086 5.55715225,13.0415625 L5.55715225,13.0415625 L1.85238408,9.49116826 C0.903601992,8.51767307 0,7.47546057 0,6.02094423 C0,3.73036731 1.82979403,1.875 4.08879901,1.875 C5.51197215,1.875 6.77701494,2.64234327 7.51119155,3.75327307 C8.24536817,2.63089038 9.52170599,1.875 10.9335841,1.875 Z M3.34332737,3.27225192 C3.25296717,3.13481731 3.0835418,3.10045865 2.9480015,3.18062884 C2.14605473,3.69600865 1.54741841,4.82984423 1.54741841,5.82624519 L1.54741841,5.82624519 L1.54741841,5.83769807 C1.54741841,6.99443942 2.16864478,8.13972788 3.38850747,9.2392048 C3.44498259,9.28501634 3.51275274,9.30792211 3.58052289,9.30792211 C3.65958807,9.30792211 3.73865324,9.28501634 3.79512836,9.21629903 C3.90807861,9.10177018 3.89678359,8.91852403 3.77253831,8.81544807 C2.6769209,7.83049999 2.12346468,6.82264615 2.12346468,5.83769807 L2.12346468,5.83769807 L2.12346468,5.82624519 C2.12346468,5.02454327 2.62044578,4.07395384 3.25296717,3.67310288 C3.38850747,3.58147981 3.42239254,3.40968654 3.34332737,3.27225192 Z M12.0630866,3.18062884 C11.9275463,3.10045865 11.7468259,3.13481731 11.6677607,3.27225192 C11.5886955,3.40968654 11.6225806,3.59293269 11.7581209,3.67310288 C12.3906423,4.07395384 12.8876234,5.02454327 12.8876234,5.82624519 L12.8876234,5.82624519 L12.8876234,5.83769807 C12.8876234,6.83409903 12.3341672,7.83049999 11.2385498,8.81544807 C11.1255995,8.91852403 11.1143045,9.10177018 11.2159597,9.21629903 C11.2724348,9.27356345 11.3515,9.30792211 11.4305652,9.30792211 C11.4983353,9.30792211 11.5661055,9.28501634 11.6225806,9.2392048 C12.8424433,8.13972788 13.4636697,6.99443942 13.4636697,5.83769807 L13.4636697,5.83769807 L13.4636697,5.82624519 C13.4636697,4.81839134 12.8537383,3.68455577 12.0630866,3.18062884 Z M5.45549702,4.02814231 C5.37643185,3.87925481 5.20700648,3.83344327 5.07146618,3.90216057 C4.32599453,4.30301154 3.85160349,5.09326057 3.85160349,5.95222692 L3.85160349,5.95222692 L3.85160349,5.9636798 C3.85160349,6.86845769 4.41635473,7.79614134 5.24089155,8.26570961 C5.28607165,8.28861538 5.33125175,8.30006826 5.37643185,8.30006826 C5.47808707,8.30006826 5.56844727,8.24280384 5.6249224,8.15118076 C5.70398757,8.01374615 5.64751245,7.84195288 5.50067712,7.76178269 C4.84556568,7.39529038 4.40505971,6.67375865 4.40505971,5.9636798 C4.40505971,5.31086538 4.76650051,4.71531538 5.33125175,4.41754038 C5.47808707,4.33737019 5.52326717,4.16557692 5.45549702,4.02814231 Z M9.93962191,3.90216057 C9.80408161,3.83344327 9.62336121,3.89070769 9.55559106,4.02814231 C9.48782091,4.16557692 9.54429604,4.34882307 9.67983633,4.41754038 C10.2558826,4.72676827 10.6060284,5.31086538 10.6060284,5.9636798 C10.6060284,6.66230576 10.1655224,7.38383749 9.51041096,7.76178269 C9.37487066,7.84195288 9.31839554,8.01374615 9.39746071,8.15118076 C9.45393584,8.24280384 9.54429604,8.30006826 9.64595126,8.30006826 C9.69113136,8.30006826 9.73631146,8.28861538 9.78149156,8.26570961 C10.6173234,7.79614134 11.1707796,6.86845769 11.1594846,5.9636798 L11.1594846,5.9636798 L11.1594846,5.95222692 C11.1594846,5.09326057 10.6963886,4.30301154 9.93962191,3.90216057 Z M7.51119155,4.9214673 C6.83349006,4.9214673 6.28003384,5.48265865 6.28003384,6.16983173 C6.28003384,6.8570048 6.83349006,7.41819615 7.51119155,7.41819615 C8.18889305,7.41819615 8.74234927,6.8570048 8.74234927,6.16983173 C8.74234927,5.48265865 8.18889305,4.9214673 7.51119155,4.9214673 Z" id="iheartradio"></path>
                        </g>
                    </g>
                </g>
            </g>
        </g>
    </g>
</svg>