<svg width="17" height="16" viewBox="0 0 17 16" fill="none" xmlns="http://www.w3.org/2000/svg">
<path fill-rule="evenodd" clip-rule="evenodd" d="M1.7061 0H15.3411C15.9941 0 16.5 0.51581 16.5 1.15124V14.848C16.5 15.4842 15.8036 16 15.1507 16H1.51562C0.863429 16 0.5 15.4842 0.5 14.848V1.15124C0.5 0.51581 1.0539 0 1.7061 0ZM8.74914 6.09524H6.59524V13.7143H8.88095V10.0549C8.88095 8.7779 9.42876 8 10.5777 8C11.524 8 11.9286 8.88914 11.9286 9.90248V13.7143H14.2143V9.48571C14.2143 7.2221 13.572 6 11.2703 6C10.071 6 9.10114 6.60114 8.77276 7.19314H8.74914V6.09524ZM2.78571 13.7143H5.07143V6.09524H2.78571V13.7143ZM3.92857 4.85714C4.71791 4.85714 5.35714 4.21791 5.35714 3.42857C5.35714 2.63924 4.71791 2 3.92857 2C3.13924 2 2.5 2.63924 2.5 3.42857C2.5 4.21791 3.13924 4.85714 3.92857 4.85714Z" fill="white"/>
</svg>
