<?xml version="1.0" encoding="UTF-8"?>
<svg width="16px" height="16px" viewBox="0 0 16 16" version="1.1" xmlns="http://www.w3.org/2000/svg" xmlns:xlink="http://www.w3.org/1999/xlink">
    <title>B6042F53-689A-4DF3-B2C7-278E86262290</title>
    <g id="Symbols" stroke="none" stroke-width="1" fill="none" fill-rule="evenodd">
        <g id="footer/768" transform="translate(-414.000000, -622.000000)" fill="#FFFFFF" fill-rule="nonzero">
            <g id="768" transform="translate(24.000000, 32.000000)">
                <g id="social" transform="translate(155.000000, 583.000000)">
                    <g id="icon-social-slack" transform="translate(228.000000, 0.000000)">
                        <g id="icon-slack" transform="translate(7.500000, 7.500000)">
                            <path d="M5.49988338,7.99998329 C5.89812459,8.00031547 6.27991896,8.15854012 6.56125899,8.43984253 C6.84259901,8.72114495 7.00043357,9.10247709 7.00003455,9.49993317 L7.00003455,9.49993317 L7.00003455,13.5000501 C7.00072755,14.3276598 6.32912771,14.9991699 5.49988338,15 C4.67146085,15 3.99998408,14.3283432 3.99998408,13.4997995 L3.99998408,13.4997995 L3.99998408,9.49993317 C3.99998408,8.67164005 4.67146085,7.99998329 5.49988338,7.99998329 Z M9.49986595,12.0001002 C10.3291103,12.0009303 11.0007101,12.6724404 11.0000169,13.5000501 C11.0007101,14.3276598 10.3291103,14.9991699 9.49986595,15 C8.67144342,15 7.99996665,14.3283432 7.99996665,13.5000501 L7.99996665,13.5000501 L7.99996665,12.0001002 Z M13.4998485,7.99998329 C14.3290928,8.00081338 15.0006927,8.67232345 14.9999995,9.49993317 C14.9999995,10.3284769 14.328271,11.0001337 13.5000996,11.0001337 L13.5000996,11.0001337 L9.49986595,11.0001337 C9.10166826,10.9994844 8.7199384,10.8412305 8.43865268,10.5599353 C8.15736695,10.2786401 7.99956686,9.89734586 7.99996589,9.49993317 C7.99996589,8.67164005 8.67144342,7.99998329 9.49986595,7.99998329 L9.49986595,7.99998329 Z M3.00005176,7.99998329 L3.00005176,9.49993317 C3.00074498,10.3275429 2.32914514,10.999053 1.49990081,10.999883 C1.10170312,10.9994844 0.719973262,10.8412305 0.438687537,10.5599353 C0.157401811,10.2786401 -0.000398283971,9.89734586 7.54966673e-07,9.49993317 C7.54966673e-07,8.67164005 0.671478278,7.99998329 1.49990081,7.99998329 L1.49990081,7.99998329 L3.00005176,7.99998329 Z M5.49988338,3.99986634 C6.32830591,3.99986634 7.00003379,4.67152309 7.00003379,5.50006683 C7.00003379,6.32835995 6.32830591,7.00001671 5.50013449,7.00001671 L5.50013449,7.00001671 L1.49990081,7.00001671 C0.671478278,7.00001671 1.51280016e-06,6.32835995 1.51280016e-06,5.50006683 C1.51280016e-06,4.67152309 0.671478278,3.99986634 1.49990081,3.99986634 L1.49990081,3.99986634 Z M13.4998485,3.99986634 C14.328271,3.99986634 14.9999995,4.67152309 14.9999995,5.50006683 C15.0006927,6.32767655 14.3290928,6.99918662 13.4998485,7.00001671 L13.4998485,7.00001671 L11.9999492,7.00001671 L11.9999492,5.50006683 C11.9999492,4.67152309 12.671426,3.99986634 13.4998485,3.99986634 Z M9.49986595,0 C10.3291103,0.000830088296 11.0007101,0.672340158 11.0000169,1.49994988 L11.0000169,1.49994988 L11.0000169,5.50031745 C11.0007101,6.32792717 10.3291103,6.99943724 9.49986595,7.00026733 C8.67144342,7.00026733 7.99996665,6.32861057 7.99996665,5.49981621 L7.99996665,5.49981621 L7.99996665,1.49994988 C7.99996665,0.671656753 8.67144342,0 9.49986595,0 Z M5.49988338,0 C6.32912771,0.000830088296 7.00072755,0.672340158 7.00003432,1.49994988 L7.00003432,1.49994988 L7.00003432,2.99989975 L5.49988338,2.99989975 C5.10168569,2.99950114 4.71995583,2.84124718 4.43867011,2.55995197 C4.15738438,2.27865676 3.99958429,1.89736257 3.99998332,1.49994988 C3.99998332,0.671656753 4.67146085,0 5.49988338,0 Z" id="slack"></path>
                        </g>
                    </g>
                </g>
            </g>
        </g>
    </g>
</svg>