<?xml version="1.0" encoding="UTF-8"?>
<svg width="16px" height="16px" viewBox="0 0 16 16" version="1.1" xmlns="http://www.w3.org/2000/svg" xmlns:xlink="http://www.w3.org/1999/xlink">
    <title>502E78BD-1CCC-4605-A5FA-47E0FA625D73</title>
    <g id="Symbols" stroke="none" stroke-width="1" fill="none" fill-rule="evenodd">
        <g id="footer/768" transform="translate(-528.000000, -622.000000)" fill="#FFFFFF" fill-rule="nonzero">
            <g id="768" transform="translate(24.000000, 32.000000)">
                <g id="social" transform="translate(155.000000, 583.000000)">
                    <g id="icon-social-spotify" transform="translate(342.000000, 0.000000)">
                        <g id="icon-spotify" transform="translate(7.500000, 7.500000)">
                            <path d="M7.5,0 C11.6421356,0 15,3.35786438 15,7.5 C15,11.6421356 11.6421356,15 7.5,15 C3.35786438,15 0,11.6421356 0,7.5 C0,3.35786438 3.35786438,0 7.5,0 Z M10.7845377,10.174814 C8.80791711,8.96652497 6.35706695,8.68517535 3.50053135,9.33873539 C3.33779706,9.37589518 3.20724889,9.49704996 3.15806307,9.65656189 C3.10887726,9.81607381 3.14852629,9.98970923 3.26207477,10.1120614 C3.37562324,10.2344135 3.54582044,10.2868941 3.70855473,10.2497343 C6.3196068,9.65356004 8.53533475,9.8966525 10.2967588,10.9726355 C10.4026038,11.0375463 10.5299388,11.05764 10.6506289,11.028477 C10.771319,10.9993139 10.8754297,10.9232947 10.9399575,10.8172157 C11.0738576,10.597237 11.0045165,10.3095112 10.7845377,10.174814 Z M11.6644527,7.97104145 C9.34989373,6.54914984 5.9641339,6.14824655 3.23990436,6.97476089 C2.9498242,7.08271126 2.79377568,7.39769692 2.88364282,7.69387876 C2.97350996,7.99006059 3.27827935,8.16522544 3.57943677,8.09378321 C5.9641339,7.37008502 9.03746015,7.72874601 11.053135,8.96811902 C11.3283232,9.1362482 11.6876705,9.04997633 11.8565356,8.77523911 L11.8565356,8.77523911 C11.9385881,8.64373145 11.9639165,8.48455239 11.9277386,8.33356185 C11.8915606,8.18257131 11.7968442,8.05215546 11.6644527,7.97104145 Z M12.651169,5.44287991 C9.86875664,3.79144527 5.46439957,3.63522848 2.81588735,4.44022317 C2.57281839,4.51023222 2.38627649,4.70569923 2.32769556,4.95177252 C2.26911463,5.19784581 2.34757112,5.45639911 2.5330211,5.62842265 C2.71847108,5.80044618 2.98218116,5.85928684 3.22316684,5.78241233 C5.5305526,5.08103082 9.51886291,5.21333688 11.9370351,6.6487779 L11.9370351,6.6487779 C12.2686606,6.84721774 12.6990097,6.73731102 12.8966525,6.40409139 C13.0942953,6.07087177 12.9843886,5.64052273 12.651169,5.44287991 Z" id="spotify"></path>
                        </g>
                    </g>
                </g>
            </g>
        </g>
    </g>
</svg>