<?xml version="1.0" encoding="UTF-8"?>
<svg width="16px" height="16px" viewBox="0 0 16 16" version="1.1" xmlns="http://www.w3.org/2000/svg" xmlns:xlink="http://www.w3.org/1999/xlink">
    <title>52F65EFB-46EC-468A-B9B2-36249D536CB2</title>
    <g id="Symbols" stroke="none" stroke-width="1" fill="none" fill-rule="evenodd">
        <g id="footer/768" transform="translate(-300.000000, -622.000000)" fill="#FFFFFF" fill-rule="nonzero">
            <g id="768" transform="translate(24.000000, 32.000000)">
                <g id="social" transform="translate(155.000000, 583.000000)">
                    <g id="icon-social-youtube" transform="translate(114.000000, 0.000000)">
                        <g id="icon-youtube" transform="translate(7.500000, 7.500000)">
                            <path d="M7.78387417,2.34411956 C8.82953874,2.35024901 12.3554096,2.39070341 13.3477561,2.65770247 C13.9980895,2.82553044 14.506818,3.32901437 14.6851352,3.97934778 C14.9001648,5.16987749 15.0050573,6.37614107 14.9998127,7.58764927 C15.0050573,8.79915747 14.9001648,10.0054211 14.6851352,11.1959508 C14.506818,11.8462842 13.9928448,12.3497681 13.3425114,12.5175961 C12.2792831,12.8036665 8.31200654,12.8296729 7.59947054,12.8320371 L7.37955096,12.8320371 C6.66701497,12.8296729 2.69973845,12.8036665 1.63651008,12.5175961 C0.991421293,12.3445235 0.487937364,11.8410395 0.314864764,11.1959508 C0.099835169,10.0054211 -0.00505731625,8.79915747 0.000187308009,7.58764927 C-0.00505731625,6.37614107 0.099835169,5.16987749 0.314864764,3.97934778 C0.487937364,3.33425899 0.991421293,2.83077507 1.63651008,2.65770247 C2.62885656,2.39070341 6.15095165,2.35024901 7.19547205,2.34411956 Z M5.99479284,5.33770546 L5.99479284,9.83759308 L9.88630404,7.58764927 L5.99479284,5.33770546 Z" id="youtube"></path>
                        </g>
                    </g>
                </g>
            </g>
        </g>
    </g>
</svg>